<svg xmlns="http://www.w3.org/2000/svg"  viewBox="0 0 64 64" width="64px" height="64px"><radialGradient id="F1XrJIjbHh_Hc2GeI3Y9Va" cx="33.211" cy="34.927" r="42.25" gradientTransform="matrix(1 0 0 -1 0 66)" gradientUnits="userSpaceOnUse"><stop offset="0" stop-color="#9ceeff"/><stop offset=".642" stop-color="#c5f5ff"/><stop offset="1" stop-color="#dcf9ff"/></radialGradient><path fill="url(#F1XrJIjbHh_Hc2GeI3Y9Va)" d="M60.5,45H53v-5h7.302c1.895,0,3.594-1.419,3.693-3.312C64.101,34.67,62.495,33,60.5,33H53v-6	h7.358c1.308,0,2.499-0.941,2.629-2.242C63.137,23.261,61.966,22,60.5,22c-0.828,0-1.5-0.671-1.5-1.5s0.672-1.5,1.5-1.5	c1.995,0,3.6-1.669,3.495-3.688C63.896,13.42,62.198,12,60.302,12h-1.195c-0.996,0-1.92-0.681-2.08-1.664	C56.823,9.083,57.785,8,59,8h0.049C60.679,8,62,6.679,62,5.049V4.951C62,3.321,60.679,2,59.049,2H4.951C3.321,2,2,3.321,2,4.951	v0.156c0,1.618,1.328,2.925,2.953,2.892c0.993-0.02,1.899,0.744,2.029,1.728C7.144,10.953,6.194,12,5,12H3.698	c-1.895,0-3.594,1.42-3.693,3.312C-0.1,17.331,1.505,19,3.5,19h5c1.381,0,2.5,1.119,2.5,2.5l0,0c0,1.381-1.119,2.5-2.5,2.5H3.698	c-1.895,0-3.594,1.419-3.693,3.312C-0.101,29.33,1.505,31,3.5,31H11v6H3.642c-1.308,0-2.5,0.941-2.629,2.243	C0.864,40.739,2.034,42,3.5,42C4.328,42,5,42.671,5,43.5S4.328,45,3.5,45c-1.995,0-3.6,1.669-3.495,3.688	C0.104,50.58,1.802,52,3.698,52h1.195c0.996,0,1.92,0.681,2.08,1.664C7.177,54.917,6.215,56,5,56H4.951C3.321,56,2,57.321,2,58.951	v0.098C2,60.679,3.321,62,4.951,62h54.098C60.679,62,62,60.679,62,59.049v-0.156c0-1.618-1.328-2.925-2.953-2.892	c-0.993,0.02-1.899-0.744-2.029-1.728C56.856,53.047,57.806,52,59,52h1.302c1.733,0,3.347-1.166,3.643-2.873	C64.329,46.918,62.639,45,60.5,45z"/><linearGradient id="F1XrJIjbHh_Hc2GeI3Y9Vb" x1="32" x2="32" y1="91.034" y2="-4.045" gradientTransform="matrix(1 0 0 -1 0 66)" gradientUnits="userSpaceOnUse"><stop offset=".096" stop-color="#5e6d7b"/><stop offset=".577" stop-color="#5c6b79"/><stop offset=".993" stop-color="#515c69"/></linearGradient><path fill="url(#F1XrJIjbHh_Hc2GeI3Y9Vb)" d="M18,8h28c5.523,0,10,4.477,10,10v28c0,5.523-4.477,10-10,10H18c-5.523,0-10-4.477-10-10V18	C8,12.477,12.477,8,18,8z"/><linearGradient id="F1XrJIjbHh_Hc2GeI3Y9Vc" x1="48.998" x2="48.998" y1="56.413" y2="21.579" gradientTransform="matrix(1 0 0 -1 0 66)" gradientUnits="userSpaceOnUse"><stop offset=".085" stop-color="#5e6d7b"/><stop offset=".421" stop-color="#5c6b79"/><stop offset="1" stop-color="#515c69"/></linearGradient><path fill="url(#F1XrJIjbHh_Hc2GeI3Y9Vc)" d="M56,40v6c0,5.52-4.48,10-10,10h-1.5c-1.47,0-2.64-1.26-2.49-2.76	c0.13-1.3,1.32-2.24,2.63-2.24h1.86c0.69,0,1.32-0.28,1.77-0.73S49,49.19,49,48.5c0-1.38-1.12-2.5-2.5-2.5H44l4-6H56z"/><linearGradient id="F1XrJIjbHh_Hc2GeI3Y9Vd" x1="16.5" x2="16.5" y1="70.225" y2="20.152" gradientTransform="matrix(1 0 0 -1 0 66)" gradientUnits="userSpaceOnUse"><stop offset="0" stop-color="#6c7985"/><stop offset=".279" stop-color="#6c7985"/><stop offset=".359" stop-color="#697884"/><stop offset=".728" stop-color="#65727e"/><stop offset="1" stop-color="#5f6975"/></linearGradient><path fill="url(#F1XrJIjbHh_Hc2GeI3Y9Vd)" d="M20,19l5-4h-8.5c-0.83,0-1.5-0.67-1.5-1.5s0.67-1.5,1.5-1.5h1.385	c1.001,0,1.929-0.686,2.087-1.674C20.173,9.072,19.206,8,18,8C12.48,8,8,12.48,8,18v13h6l2-7h-1.5c-1.381,0-2.5-1.119-2.5-2.5l0,0	c0-1.381,1.119-2.5,2.5-2.5H20z"/><path fill="#fff" d="M32,51c-10.477,0-19-8.523-19-19s8.523-19,19-19s19,8.523,19,19S42.477,51,32,51z M32,15	c-9.374,0-17,7.626-17,17s7.626,17,17,17s17-7.626,17-17S41.374,15,32,15z"/><path fill="#fff" d="M42,29v0.52h-0.01c0,0.49-0.03,0.99-0.09,1.48c-0.12,1.1-0.41,2.18-0.83,3.2	c-0.92,2.24-2.54,4.2-4.61,5.52c-0.72,0.46-1.68,0.271-2.16-0.42c-0.45-0.66-0.29-1.53,0.33-2.01l0.02-0.01	c1.44-1.09,2.48-2.61,3-4.26c0.11-0.35,0.21-0.71,0.25-1.07c0-0.5-0.4-0.92-0.9-0.95h-0.05C34.97,30.97,33,29.19,33,27	c0-0.995,0.408-1.905,1.084-2.604c1.478-1.527,3.905-1.44,5.586-0.14C41.086,25.351,42,27.069,42,29z"/><path fill="#fff" d="M31,29v0.52h-0.01c0,0.49-0.03,0.99-0.09,1.48c-0.12,1.1-0.41,2.18-0.83,3.2	c-0.92,2.24-2.54,4.2-4.61,5.52c-0.72,0.46-1.68,0.271-2.16-0.42c-0.45-0.66-0.29-1.53,0.33-2.01l0.02-0.01	c1.44-1.09,2.48-2.61,3-4.26c0.11-0.35,0.21-0.71,0.25-1.07c0-0.5-0.4-0.92-0.9-0.95h-0.05C23.97,30.97,22,29.19,22,27	c0-0.995,0.408-1.905,1.084-2.604c1.478-1.527,3.905-1.44,5.586-0.14C30.086,25.351,31,27.069,31,29z"/></svg>